<?xml version="1.0" encoding="UTF-8" standalone="no"?>
<!-- Created with Inkscape (http://www.inkscape.org/) -->

<svg
   width="171.83792mm"
   height="90.536316mm"
   viewBox="0 0 171.83792 90.536316"
   version="1.1"
   id="svg1"
   xml:space="preserve"
   xmlns="http://www.w3.org/2000/svg"
   xmlns:svg="http://www.w3.org/2000/svg"><defs
     id="defs1" /><g
     id="layer1"
     transform="translate(-20.186871,-13.519174)"><path
       style="fill:#004b82;fill-opacity:1;stroke-width:2.02921"
       d="M 20.234681,78.835466 20.186871,53.615598 H 33.632737 47.0786 v 5.043975 5.043974 l -6.988007,-1.71e-4 -6.988005,-1.72e-4 0.05995,4.939063 0.05995,4.939064 h 6.192482 6.19248 v 5.043975 5.043973 l -6.252428,-5e-5 -6.252428,-5.3e-5 0.0565,10.193083 0.05647,10.193081 -6.466534,-1e-5 h -6.466535 z m 33.359054,4e-6 V 53.615598 l 11.401485,0.0043 c 11.191208,0.0041 12.996857,0.08942 15.604794,0.737565 4.55189,1.131251 8.061103,4.636422 9.251795,9.241138 0.860292,3.326989 0.805056,8.961761 -0.120451,12.288938 -0.94947,3.413248 -3.152711,6.564313 -5.680925,8.124814 l -1.22831,0.758156 0.280731,0.657906 c 0.154404,0.36185 2.042437,4.653422 4.195634,9.536827 2.153197,4.883411 3.914903,8.926478 3.914903,8.984588 0,0.0581 -2.969386,0.10566 -6.598632,0.10566 h -6.598622 l -1.380813,-3.52027 c -0.759446,-1.93615 -2.318499,-5.931923 -3.464558,-8.879496 l -2.083742,-5.359223 -2.231507,-0.05966 -2.231507,-0.05966 v 8.939149 8.93915 h -6.515133 -6.515135 z m 21.131227,-2.632526 c 1.083522,-0.541182 1.329423,-0.780121 1.832882,-1.780951 1.085296,-2.157471 1.213225,-6.195962 0.267943,-8.458342 -0.408703,-0.978161 -1.612035,-1.953927 -2.768848,-2.245216 -0.50763,-0.12782 -2.387707,-0.292845 -4.177949,-0.366715 l -3.254987,-0.134313 v 6.887962 6.887961 l 3.424777,-0.08267 c 3.298206,-0.07963 3.471026,-0.105781 4.676182,-0.707713 z m 43.179448,23.167689 v -4.684702 l 1.64406,-3.143963 c 2.57292,-4.920261 4.32804,-8.281091 8.22715,-15.753898 1.99031,-3.814505 4.23178,-8.102663 4.98105,-9.529236 l 1.36233,-2.593773 -7.4768,0.153306 -7.4768,0.153307 v -5.178042 -5.178039 h 14.18619 14.18619 v 4.759978 4.759976 l -4.29419,8.322832 c -2.36181,4.577557 -5.94182,11.562008 -7.95561,15.521004 l -3.66144,7.198173 h 7.95561 7.95563 v 4.938887 4.938887 H 132.7211 117.90441 Z m 33.63349,2.530507 c 0.31798,-1.1848 1.02586,-3.903819 1.57308,-6.042255 1.21523,-4.7489 4.0354,-15.682098 5.04167,-19.545401 1.3244,-5.084686 5.77804,-22.510849 5.77804,-22.608247 0,-0.05219 3.42141,-0.07007 7.60311,-0.03971 l 7.60312,0.05517 1.53964,5.989721 c 0.84679,3.294345 3.01321,11.711478 4.81425,18.704739 1.80107,6.99326 3.60326,13.991775 4.00491,15.552253 0.40164,1.560482 1.10768,4.303141 1.56898,6.0948 0.46128,1.79166 0.88772,3.42308 0.94761,3.62536 0.10203,0.34453 -0.29063,0.36779 -6.21023,0.36779 -3.47553,0 -6.31914,-0.0352 -6.31914,-0.0784 0,-0.0432 -0.41575,-1.91097 -0.92388,-4.150767 -0.50813,-2.239809 -0.98885,-4.381202 -1.06823,-4.758657 l -0.14427,-0.686283 -5.91554,0.05578 -5.91554,0.05578 -0.99391,4.3084 c -0.54664,2.369607 -1.04686,4.521177 -1.1116,4.781257 l -0.11769,0.47287 h -6.16623 -6.16623 z m 23.74174,-17.293835 c 0,-0.06203 -0.65537,-2.970207 -1.45636,-6.462592 -0.80099,-3.492384 -1.62617,-7.177317 -1.83376,-8.188739 -0.20756,-1.011422 -0.42702,-1.838289 -0.48767,-1.837481 -0.0607,8.08e-4 -0.90913,3.570997 -1.8855,7.933752 -0.97638,4.362756 -1.81493,8.097788 -1.86346,8.300074 -0.0815,0.33999 0.19946,0.367789 3.71924,0.367789 2.09413,0 3.80751,-0.05077 3.80751,-0.112803 z M 100.50446,43.159859 c -1.881007,-5.529492 -3.511637,-9.007696 -6.85213,-14.615856 -2.436578,-4.090638 -2.900656,-5.104755 -3.020765,-6.601032 -0.102459,-1.275722 -0.08622,-1.327893 0.637682,-2.051772 0.673301,-0.673291 0.85277,-0.742771 1.91908,-0.742771 1.060989,0 1.260608,0.07609 2.035826,0.776517 2.81934,2.547101 5.376077,12.420209 6.397897,24.706072 0.0746,0.895833 0.0908,1.628784 0.0362,1.628784 -0.0546,0 -0.57381,-1.394974 -1.1538,-3.099942 z m 3.75504,0.350594 c -0.1452,-1.435431 -0.87794,-7.527742 -1.62835,-13.538477 -1.61471,-12.933842 -1.65271,-14.141626 -0.48289,-15.348558 1.21798,-1.256647 2.82868,-1.452263 4.34447,-0.527634 1.79886,1.097293 1.79677,2.580766 -0.0239,17.032089 -0.75001,5.952945 -1.42922,11.58013 -1.50935,12.504858 -0.23561,2.719026 -0.41573,2.687557 -0.69993,-0.12228 z m 3.24275,1.961229 c 0.0526,-0.317877 0.24601,-2.138436 0.42985,-4.04569 0.93034,-9.652222 3.57942,-18.783289 6.18848,-21.330979 0.71004,-0.693339 0.98675,-0.818948 1.98663,-0.901881 1.4053,-0.116477 2.10193,0.257791 2.57156,1.381788 0.38105,0.911967 0.24747,2.319364 -0.35314,3.720491 -0.22282,0.519862 -1.35172,2.453981 -2.50861,4.298044 -3.45274,5.503514 -5.90612,10.634991 -7.61515,15.927795 -0.48908,1.514653 -0.88104,2.047135 -0.69962,0.950432 z M 97.316393,43.409017 c -2.08456,-2.76099 -6.347237,-6.81661 -10.411405,-9.905692 -2.508791,-1.906866 -2.942323,-2.428373 -2.942323,-3.539323 0,-1.915491 1.656544,-2.439371 3.901174,-1.233759 1.46371,0.786177 4.137802,3.320453 5.662218,5.366178 1.571866,2.109381 3.202916,5.319907 4.110976,8.091981 0.40333,1.231244 0.69673,2.275208 0.65202,2.319922 -0.0447,0.0447 -0.4824,-0.449977 -0.97266,-1.099307 z m 13.706637,0.906754 c 0.0545,-0.14448 0.26073,-0.821476 0.45835,-1.504414 0.96118,-3.321677 3.67958,-8.155849 6.03632,-10.734504 3.08158,-3.371731 6.42434,-4.838179 7.68576,-3.37167 1.03509,1.20336 0.45074,2.419383 -2.081,4.33051 -4.80436,3.62666 -8.93179,7.487107 -11.15943,10.437602 -0.81561,1.080268 -1.13891,1.370021 -0.94,0.842476 z"
       id="path134" /></g></svg>
